<svg width="114px" height="66px" viewBox="0 0 114 66" version="1.1" xmlns="http://www.w3.org/2000/svg" xmlns:xlink="http://www.w3.org/1999/xlink">
    <!-- Generator: Sketch 47.1 (45422) - http://www.bohemiancoding.com/sketch -->
    <desc>Created with Sketch.</desc>
    <defs></defs>
    <g id="Page-1" stroke="none" stroke-width="1" fill="none" fill-rule="evenodd">
        <g id="SCHMODEL---F-e-APP_Event-Talent" transform="translate(-1.000000, -64.000000)" fill-rule="nonzero">
            <g id="cd07f9bd-be66-4392-b675-cc6be4e56a31">
                <g id="Group-2" transform="translate(1.000000, 64.000000)">
                    <rect id="Rectangle-path" fill="#4EC8EB" x="0.92" y="0.08" width="112.57" height="65.27"></rect>
                    <path d="M27.64,27.71 C28.5253854,26.5228358 29.5996728,25.4890875 30.82,24.65 C33.0301239,23.0940958 35.6671339,22.2593337 38.37,22.26 C45.61,22.26 52.85,22.26 60.09,22.26 L68,22.26 C69.0914289,22.2612021 70.0248474,21.47561 70.21,20.4 C70.295585,19.9695666 70.1870614,19.5232937 69.9133784,19.1802262 C69.6396953,18.8371587 69.2286902,18.6321914 68.79,18.62 L45.46,18.62 C45.46,18.46 45.55,18.4 45.61,18.32 C47.8325739,15.6931241 50.9025733,13.9246913 54.29,13.32 C54.9509211,13.210031 55.6200017,13.1565046 56.29,13.16 C60.7433333,13.16 65.1866667,13.16 69.62,13.16 C72.1334097,13.0416575 74.4409329,14.5437625 75.35,16.89 C76.0724625,18.8293247 75.889026,20.9902074 74.85,22.78 C73.5521498,25.3736214 71.08397,27.1828754 68.22,27.64 C67.8234147,27.7051448 67.4218657,27.735261 67.02,27.73 L27.64,27.73 L27.64,27.71 Z" id="Shape" fill="#FEFFFF"></path>
                    <path d="M85.82,31.33 C85.0498492,32.2897679 84.163005,33.149738 83.18,33.89 C80.6979393,35.7984742 77.6509179,36.8258763 74.52,36.81 C66.97,36.81 59.42,36.81 51.87,36.81 C48.344174,36.9222212 45.0589885,35.0278159 43.39,31.92 C43.08,31.37 43.09,31.36 43.69,31.36 L85.82,31.36 L85.82,31.33 Z" id="Shape" fill="#FEFFFF"></path>
                    <path d="M54.94,48.74 L53.69,50.51 C53.5673997,50.7258871 53.3382702,50.8592655 53.09,50.8592655 C52.8417298,50.8592655 52.6126003,50.7258871 52.49,50.51 C52.07,49.92 51.65,49.34 51.23,48.73 C51.08,48.87 51.14,49.02 51.13,49.14 C51.13,50.35 51.13,51.56 51.13,52.77 C51.13,53.08 51.04,53.21 50.72,53.18 C50.4,53.15 50.1,53.18 49.79,53.18 C49.48,53.18 49.45,53.11 49.45,52.86 L49.45,45.3 C49.45,45.05 49.55,44.99 49.78,44.97 C50.3034047,44.8612011 50.8351227,45.1147897 51.08,45.59 C51.55,46.37 52.08,47.09 52.64,47.83 C53.03,48.39 53.12,48.39 53.51,47.83 L55.28,45.32 C55.6154376,44.9721063 56.1171893,44.8408789 56.58,44.98 C56.76,45.07 56.72,45.23 56.72,45.37 L56.72,50 C56.72,50.94 56.72,51.87 56.72,52.81 C56.72,53.11 56.62,53.24 56.31,53.22 C56.0370326,53.199997 55.7629674,53.199997 55.49,53.22 C55.13,53.22 55,53.13 55.01,52.76 C55.01,51.56 55.01,50.37 55.01,49.17 L55.01,48.81 L54.94,48.74 Z" id="Shape" fill="#FBFDFF"></path>
                    <path d="M41.52,49.06 C41.52,47.83 41.52,46.59 41.52,45.36 C41.52,45.06 41.62,44.97 41.91,44.97 C43.2433333,44.97 44.5533333,44.97 45.84,44.97 C46.0686374,44.9548653 46.2859315,45.0712728 46.4,45.27 C46.96,46.13 47.53,47 48.11,47.85 C48.2554562,48.0159745 48.2554562,48.2640255 48.11,48.43 C47.7,48.98 47.33,49.55 46.9,50.09 C46.7034283,50.3242218 46.7034283,50.6657782 46.9,50.9 C47.28,51.54 47.63,52.21 48,52.85 C48.13,53.09 48.1,53.19 47.81,53.18 C47.52,53.17 46.97,53.18 46.54,53.18 C46.2978583,53.2084986 46.0658539,53.0741803 45.97,52.85 C45.71,52.35 45.42,51.85 45.15,51.35 C45.08,51.23 45.01,51.09 44.86,51.08 C44.4008587,51.0402509 43.9391413,51.0402509 43.48,51.08 C43.29,51.08 43.3,51.26 43.3,51.4 C43.3,51.88 43.3,52.4 43.3,52.85 C43.3,53.09 43.21,53.2 42.97,53.19 C42.73,53.18 42.27,53.19 41.97,53.19 C41.67,53.19 41.61,53.08 41.61,52.81 C41.53,51.56 41.52,50.31 41.52,49.06 Z M43.25,48.06 C43.25,48.38 43.25,48.7 43.25,49.06 C43.25,49.42 43.32,49.36 43.53,49.36 L45.17,49.36 C45.2575924,49.3674305 45.3443843,49.3384998 45.41,49.28 C45.6964787,48.9732086 45.9511141,48.6381619 46.17,48.28 C46.2300855,48.196337 46.2300855,48.083663 46.17,48 L45.48,47 C45.3961855,46.8864458 45.2609411,46.8225803 45.12,46.83 L43.55,46.83 C43.33,46.83 43.24,46.92 43.25,47.14 C43.26,47.36 43.25,47.7 43.25,48 L43.25,48.06 Z" id="Shape" fill="#FBFDFF"></path>
                    <path d="M33.82,49.08 L33.82,46.54 C33.7819067,46.1174536 33.9347453,45.7000086 34.2366717,45.4019531 C34.538598,45.1038976 34.9579802,44.9564579 35.38,45 C36.2866667,45 37.1966667,45 38.11,45 C38.5720911,44.9280439 39.0408487,45.0802532 39.3725198,45.4099501 C39.704191,45.7396471 39.8591961,46.2074876 39.79,46.67 C39.79,48.29 39.79,49.91 39.79,51.53 C39.8637887,51.9934676 39.7102867,52.4641521 39.377449,52.7950086 C39.0446113,53.1258651 38.5730188,53.2765544 38.11,53.2 L35.45,53.2 C35.0019427,53.2601374 34.5514738,53.1078568 34.2318085,52.7881915 C33.9121432,52.4685262 33.7598626,52.0180573 33.82,51.57 L33.82,49.08 Z M38.02,49.08 L38.02,49.08 C38.02,48.43 38.02,47.78 38.02,47.14 C38.02,46.85 37.89,46.67 37.6,46.67 C37.06,46.67 36.51,46.67 35.96,46.67 C35.8515662,46.6580087 35.7433673,46.694482 35.6643218,46.7696716 C35.5852763,46.8448613 35.543442,46.9511025 35.55,47.06 L35.55,51 C35.5436052,51.1221135 35.5907465,51.2409508 35.6791118,51.3254741 C35.767477,51.4099974 35.8882911,51.4518131 36.01,51.44 L37.58,51.44 C37.87,51.44 38.02,51.28 38.02,50.97 C38,50.36 38,49.73 38,49.11 L38.02,49.08 Z" id="Shape" fill="#FBFDFF"></path>
                    <path d="M75.14,52.23 C74.68,52.23 74.21,52.23 73.75,52.23 C73.53,52.23 73.4,52.23 73.35,52.51 C73.3,52.79 73.25,52.76 73.22,52.9 C73.1754107,53.0902924 72.9937459,53.2157276 72.8,53.19 C72.44,53.19 72.08,53.19 71.71,53.19 C71.34,53.19 71.3,53.19 71.43,52.79 L73.76,46.28 C73.88,45.96 74,45.65 74.1,45.28 C74.1403611,45.0623062 74.3394266,44.9108433 74.56,44.93 C74.97,44.93 75.39,44.93 75.8,44.93 C76.0174121,44.910125 76.215212,45.0563249 76.26,45.27 C77.12,47.77 77.9833333,50.2666667 78.85,52.76 C78.94,53.04 78.9,53.16 78.59,53.14 C78.28,53.12 77.89,53.14 77.59,53.14 C77.467787,53.1600482 77.342653,53.1299698 77.2429025,53.0565685 C77.1431519,52.9831671 77.0772127,52.8726444 77.06,52.75 C76.89,52.18 76.87,52.19 76.27,52.19 L75.14,52.23 Z M75.22,47.5 L75.12,47.5 L74.12,50.44 C74.06,50.6 74.12,50.63 74.26,50.63 L76.13,50.63 C76.27,50.63 76.34,50.63 76.28,50.44 C75.89,49.47 75.56,48.49 75.22,47.5 Z" id="Shape" fill="#FBFDFF"></path>
                    <path d="M64.23,48.58 C64.23,49.58 64.23,50.58 64.23,51.65 C64.2704816,52.0624295 64.1248291,52.4714123 63.8327647,52.765411 C63.5407002,53.0594096 63.1326877,53.2077585 62.72,53.17 C61.79,53.17 60.87,53.17 59.95,53.17 C59.5505544,53.2157505 59.151503,53.0810789 58.8614641,52.8026415 C58.5714253,52.5242042 58.4205847,52.1309796 58.45,51.73 C58.45,49.58 58.45,47.44 58.45,45.29 C58.45,45.04 58.57,44.97 58.79,44.97 C59.01,44.97 59.42,44.97 59.73,44.97 C60.04,44.97 60.19,45.06 60.18,45.41 C60.18,47.12 60.18,48.83 60.18,50.54 C60.18,51.46 60.18,51.46 61.11,51.46 L61.86,51.46 C62.45,51.46 62.53,51.38 62.53,50.8 C62.53,49.01 62.53,47.23 62.53,45.45 C62.53,45.05 62.66,44.94 63.03,44.97 C63.4,45 63.63,44.97 63.93,44.97 C64.23,44.97 64.27,45.07 64.27,45.33 C64.27,46.41 64.27,47.5 64.27,48.58 L64.23,48.58 Z" id="Shape" fill="#FBFDFF"></path>
                    <path d="M82.27,49.07 C82.27,47.84 82.27,46.6 82.27,45.37 C82.27,45.08 82.35,44.97 82.65,44.97 C84.18,44.97 85.72,44.97 87.25,44.97 C87.55,44.97 87.66,45.08 87.65,45.37 C87.6300139,45.6796779 87.6300139,45.9903221 87.65,46.3 C87.65,46.62 87.53,46.7 87.23,46.7 C86.29,46.7 85.36,46.7 84.42,46.7 C84.09,46.7 83.99,46.8 83.99,47.13 C83.99,48.13 83.99,48.13 84.99,48.13 C85.64,48.13 86.29,48.13 86.99,48.13 C87.26,48.13 87.32,48.22 87.22,48.47 C87.12,48.72 86.98,49.09 86.88,49.41 C86.8393984,49.6296739 86.630407,49.7764125 86.41,49.74 C85.77,49.74 85.14,49.74 84.5,49.74 C84.18,49.74 84.03,49.81 84.06,50.16 C84.0900123,50.4559076 84.0900123,50.7540924 84.06,51.05 C84.06,51.43 84.19,51.52 84.54,51.51 C85.46,51.51 86.38,51.51 87.31,51.51 C87.62,51.51 87.73,51.61 87.72,51.91 C87.71,52.21 87.72,52.56 87.72,52.91 C87.72,53.26 87.65,53.25 87.4,53.25 C85.83,53.25 84.25,53.25 82.68,53.25 C82.41,53.25 82.35,53.13 82.35,52.88 C82.27,51.57 82.27,50.32 82.27,49.07 Z" id="Shape" fill="#FBFDFF"></path>
                    <path d="M27.41,49.06 C27.41,47.85 27.41,46.64 27.41,45.43 C27.41,45.1 27.49,44.96 27.85,44.97 C29.2633333,44.97 30.6733333,44.97 32.08,44.97 C32.39,44.97 32.54,45.06 32.52,45.39 C32.4950029,45.6894793 32.4950029,45.9905207 32.52,46.29 C32.52,46.61 32.4,46.69 32.1,46.69 C31.27,46.69 30.45,46.69 29.62,46.69 C29.23,46.69 29.11,46.82 29.15,47.19 C29.1700037,47.4362611 29.1700037,47.6837389 29.15,47.93 C29.15,48.28 29.27,48.36 29.59,48.35 C30.29,48.35 30.99,48.35 31.68,48.35 C31.96,48.35 32.05,48.42 31.94,48.69 C31.83,48.96 31.7,49.32 31.6,49.69 C31.5595634,49.8987113 31.3594204,50.0365876 31.15,50 C30.62,50 30.08,50 29.54,50 C29.26,50 29.14,50.09 29.15,50.38 C29.15,51.21 29.15,52.03 29.15,52.86 C29.15,53.16 29.06,53.29 28.74,53.27 C28.4070054,53.248747 28.0729946,53.248747 27.74,53.27 C27.42,53.27 27.37,53.13 27.37,52.86 C27.42,51.53 27.41,50.3 27.41,49.06 Z" id="Shape" fill="#FBFDFF"></path>
                    <path d="M66,49.05 C66,47.82 66,46.6 66,45.38 C66,45.06 66.11,44.95 66.41,44.97 C66.71,44.99 66.94,44.97 67.2,44.97 C67.73,44.97 67.73,44.97 67.73,45.49 L67.73,50.92 C67.73,51.46 67.73,51.46 68.29,51.46 C68.85,51.46 69.64,51.46 70.29,51.46 C70.59,51.46 70.68,51.53 70.56,51.82 C70.44,52.11 70.3,52.52 70.18,52.87 C70.1311839,53.0686149 69.9434577,53.2008764 69.74,53.18 C68.6,53.18 67.47,53.18 66.33,53.18 C66.03,53.18 65.98,53.04 65.98,52.79 C66,51.54 66,50.29 66,49.05 Z" id="Shape" fill="#FBFDFF"></path>
                    <path d="M80.18,48.1 C80.45,48.1 80.73,48.1 81,48.1 C81.27,48.1 81.33,48.17 81.23,48.41 C81.13,48.65 80.98,49.08 80.87,49.41 C80.8223746,49.5824531 80.6581803,49.6961261 80.48,49.68 L79.32,49.68 C79.13,49.68 79.02,49.62 79.02,49.41 C79.02,49.2 79.02,48.71 79.02,48.36 C79.02,48.01 79.12,48.08 79.32,48.08 C79.52,48.08 79.89,48.1 80.18,48.1 Z" id="Shape" fill="#FBFDFF"></path>
                    <path d="M43.25,48 C43.25,47.69 43.25,47.38 43.25,47.06 C43.25,46.74 43.33,46.74 43.55,46.75 L45.08,46.75 C45.2209411,46.7425803 45.3561855,46.8064458 45.44,46.92 L46.13,47.92 C46.1900855,48.003663 46.1900855,48.116337 46.13,48.2 C45.9111141,48.5581619 45.6564787,48.8932086 45.37,49.2 C45.3043843,49.2584998 45.2175924,49.2874305 45.13,49.28 L43.53,49.28 C43.32,49.28 43.25,49.18 43.25,48.98 C43.25,48.78 43.25,48.33 43.25,48 Z" id="Shape" fill="#4EC8EB"></path>
                    <path d="M38,49.11 C38,49.73 38,50.36 38,50.98 C38,51.29 37.85,51.45 37.56,51.45 L36,51.45 C35.8782911,51.4618131 35.757477,51.4199974 35.6691118,51.3354741 C35.5807465,51.2509508 35.5336052,51.1321135 35.54,51.01 L35.54,47.1 C35.533442,46.9911025 35.5752763,46.8848613 35.6543218,46.8096716 C35.7333673,46.734482 35.8415662,46.6980087 35.95,46.71 C36.5,46.71 37.05,46.71 37.59,46.71 C37.88,46.71 38.01,46.89 38.01,47.18 C38.01,47.82 38.01,48.47 38.01,49.12 L38,49.11 Z" id="Shape" fill="#4EC8EB"></path>
                    <path d="M75.22,47.5 C75.56,48.5 75.89,49.5 76.22,50.5 C76.28,50.67 76.22,50.69 76.07,50.69 L74.22,50.69 C74.08,50.69 74.02,50.69 74.08,50.5 L75.08,47.56 L75.22,47.5 Z" id="Shape" fill="#4EC8EB"></path>
                </g>
            </g>
        </g>
    </g>
</svg>