<svg width="34px" height="29px" viewBox="0 0 34 29" version="1.1" xmlns="http://www.w3.org/2000/svg" xmlns:xlink="http://www.w3.org/1999/xlink">
    <!-- Generator: Sketch 47.1 (45422) - http://www.bohemiancoding.com/sketch -->
    <desc>Created with Sketch.</desc>
    <defs></defs>
    <g id="Page-1" stroke="none" stroke-width="1" fill="none" fill-rule="evenodd" stroke-linecap="round">
        <g id="SCHMODEL---F-e-APP_Event-Talent" transform="translate(-131.000000, -197.000000)" stroke-width="1.04" stroke="#FFFFFF">
            <g id="cd07f9bd-be66-4392-b675-cc6be4e56a31">
                <path d="M155.82,198.33 C157.279889,198.339434 158.708915,198.751187 159.95,199.52 C164.060222,202.251886 165.386874,207.680283 163,212 C160.9,215.9 151.35,223.12 148.47,225.24 C148.264146,225.400148 147.975854,225.400148 147.77,225.24 C144.89,223.12 135.34,215.9 133.24,212 C130.87142,207.677522 132.210309,202.261107 136.32,199.54 C137.561085,198.771187 138.990111,198.359434 140.45,198.35 C143.025324,198.372675 145.437197,199.615717 146.95,201.7 L148.12,203.25 L149.29,201.7 C150.802803,199.615717 153.214676,198.372675 155.79,198.35" id="Shape"></path>
            </g>
        </g>
    </g>
</svg>