<svg width="33px" height="28px" viewBox="0 0 33 28" version="1.1" xmlns="http://www.w3.org/2000/svg" xmlns:xlink="http://www.w3.org/1999/xlink">
    <!-- Generator: Sketch 47.1 (45422) - http://www.bohemiancoding.com/sketch -->
    <desc>Created with Sketch.</desc>
    <defs></defs>
    <g id="Page-1" stroke="none" stroke-width="1" fill="none" fill-rule="evenodd">
        <g id="SCHMODEL---F-e-APP_Event-Talent" transform="translate(-197.000000, -197.000000)" fill-rule="nonzero" fill="#FF4165">
            <g id="cd07f9bd-be66-4392-b675-cc6be4e56a31">
                <path d="M220.72,197.81 C222.180339,197.81631 223.610197,198.228303 224.85,199 C228.959691,201.721107 230.29858,207.137522 227.93,211.46 C225.83,215.36 216.28,222.58 213.4,224.7 C213.300299,224.7785 213.176893,224.82081 213.05,224.82 C212.92006,224.820735 212.793511,224.778552 212.69,224.7 C209.82,222.58 200.27,215.36 198.16,211.46 C195.798427,207.134382 197.140927,201.720939 201.25,199 C202.489153,198.226843 203.919435,197.814728 205.38,197.81 C207.952756,197.833519 210.36294,199.071983 211.88,201.15 L213.05,202.71 L214.22,201.15 C215.733863,199.068247 218.146068,197.828744 220.72,197.81" id="Shape"></path>
            </g>
        </g>
    </g>
</svg>