<svg width="83px" height="105px" viewBox="0 0 83 105" version="1.1" xmlns="http://www.w3.org/2000/svg" xmlns:xlink="http://www.w3.org/1999/xlink">
    <!-- Generator: Sketch 47.1 (45422) - http://www.bohemiancoding.com/sketch -->
    <desc>Created with Sketch.</desc>
    <defs></defs>
    <g id="Page-1" stroke="none" stroke-width="1" fill="none" fill-rule="evenodd" opacity="0.3">
        <g id="SCHMODEL---F-e-APP_Edit-My-Profile-2" transform="translate(-278.000000, -439.000000)" fill-rule="nonzero" fill="#58595B">
            <g id="7429ee68-b00a-4106-ac04-cea8cddb047b" transform="translate(11.000000, 92.000000)">
                <path d="M340.09,451.78 C340.09,451.78 334.57,440.04 331.9,437.37 C329.23,434.7 328.16,429 328.16,429 L321.76,424.55 C321.76,424.55 322.47,415.48 326.03,415.12 C329.679433,414.948065 333.334453,415.308514 336.88,416.19 C338.13,416.63 342.31,414.76 341.6,411.92 C340.89,409.08 342.22,406.49 343.02,406.04 C343.82,405.59 343.29,404.75 342.95,404.5 C342.95,404.5 344.49,404.13 344.45,403.55 C344.41,402.97 344.14,399.86 344.85,399.37 C345.56,398.88 348.01,398.53 348.36,398.21 C349.047449,397.734239 349.505191,396.993199 349.622891,396.165503 C349.740591,395.337806 349.507571,394.498539 348.98,393.85 C347.21,391.45 344.89,384.16 344.27,382.55 C343.65,380.94 344.18,380.95 344.18,380.95 L344.86,381.13 C344.788351,381.34856 344.643551,381.535741 344.45,381.66 C344.76518,381.495935 345.03096,381.250865 345.22,380.95 C345.22,380.95 345.43,381.49 345.13,381.78 C345.13,381.78 345.84,381.4 345.84,380.95 C345.84,380.95 346.55,382.02 345.99,382.52 C345.99,382.52 347.06,381.81 347.06,381.31 C347.06,381.31 347.41,381.78 347.18,382.11 C347.18,382.11 350.41,376.77 347.92,368.49 C345.43,360.21 341.69,352.12 332.43,351.23 C332.43,351.23 329.35,351.29 328.64,351.77 C328.64,351.77 321.76,341.21 302.06,352.12 C302.06,352.12 296.13,357.58 294.35,358.05 C292.57,358.52 293.35,359.36 293.35,359.36 C293.35,359.36 293.83,358.41 292.52,358.53 C291.546007,358.694798 290.616575,359.059081 289.79,359.6 C289.79,359.6 281.84,357.82 277.93,362.09 C274.02,366.36 265.83,384.16 267.93,394.09 C270.03,404.02 273.09,415.27 272.74,418.47 C272.39,421.67 274.34,436.62 277.54,440.36 C280.74,444.1 279.54,446.41 277.36,447.3 C277.36,447.3 291.11,445.52 287.36,423.81 C287.36,423.81 294.48,414.2 291.45,404.81 C288.42,395.42 288.25,393.6 288.61,390.57 C288.97,387.54 290.38,385.05 288.96,382.74 C287.54,380.43 288.78,374.38 286.47,372.74 C284.16,371.1 284.33,367.22 287.54,366.51 C290.75,365.8 288.72,365.68 288.72,365.68 C288.72,365.68 288.49,366.57 289.85,366.57 C290.615553,366.495685 291.388012,366.594806 292.11,366.86 C292.46,367.04 292.76,367.81 292.76,367.81 C291.765141,370.037587 291.007631,372.363748 290.5,374.75 C289.97,377.9 291.39,388.93 293.65,391.54 C295.91,394.15 299.05,396.46 299.65,397.54 C300.25,398.62 301.07,408.46 299.77,411.42 C298.47,414.38 289.45,434.2 287.19,441.2 C284.93,448.2 284.11,451.76 284.11,451.76 L340.09,451.78 Z" id="Shape" style="mix-blend-mode: screen;"></path>
            </g>
        </g>
    </g>
</svg>