<svg width="100px" height="115px" viewBox="0 0 100 115" version="1.1" xmlns="http://www.w3.org/2000/svg" xmlns:xlink="http://www.w3.org/1999/xlink">
    <!-- Generator: Sketch 47.1 (45422) - http://www.bohemiancoding.com/sketch -->
    <desc>Created with Sketch.</desc>
    <defs></defs>
    <g id="Page-1" stroke="none" stroke-width="1" fill="none" fill-rule="evenodd" opacity="0.3">
        <g id="SCHMODEL---F-e-APP_Edit-My-Profile-2" transform="translate(-26.000000, -431.000000)" fill-rule="nonzero" fill="#58595B">
            <g id="7429ee68-b00a-4106-ac04-cea8cddb047b" transform="translate(11.000000, 92.000000)">
                <path d="M95.75,431.13 L95.64,431.13 C91.26,430.03 82.22,427.21 79.38,424.38 C76.94,421.93 74.94,413.13 74.26,407.53 C75.3984327,406.690003 76.4473024,405.734962 77.39,404.68 C77.59,414 82.73,421.62 89.15,422.05 L89.15,422.05 C89.3332801,422.048675 89.4982846,421.938672 89.57,421.77 C89.65397,421.591921 89.6180476,421.380378 89.48,421.24 C86.94,418.7 88.3,413.41 91.16,410.54 C92.89,408.81 94.33,401.95 92.53,397.31 C91.53,394.74 89.24,392.31 87.53,390.55 C86.92,389.9 86.39,389.34 86.07,388.93 C86.0103403,388.853098 85.9252684,388.799928 85.83,388.78 C87.83,387.78 89.2,383.78 89.2,379.35 C89.0438348,378.070396 88.5993414,376.84291 87.9,375.76 L87.9,375.76 C90.05,364.43 81.75,348.3 71.53,347.19 C73.53,342.27 68.2,339.19 65.34,339.19 C62.48,339.19 57.13,342.95 58.87,347.19 C47.47,347.6 37.8,367.81 41.87,378.81 L41.39,378.81 C41.1304262,378.81 40.92,379.020426 40.92,379.28 C40.92,384.48 43.09,389.05 45.57,389.05 C45.7365575,389.043488 45.8999733,389.002634 46.05,388.93 C48.15,396.52 51.73,404.32 56.18,407.59 C55.5,413.19 53.5,421.93 51.07,424.37 C48.23,427.2 39.19,430.02 34.81,431.12 L34.7,431.12 C21.04,434.53 16.8,444.75 15.7,452.73 C15.680643,452.863496 15.7208568,452.998761 15.81,453.1 C15.8992447,453.199814 16.026124,453.257816 16.16,453.26 L114.3,453.26 C114.433876,453.257816 114.560755,453.199814 114.65,453.1 C114.739143,452.998761 114.779357,452.863496 114.76,452.73 C113.65,444.76 109.41,434.54 95.75,431.13 Z" id="Shape" style="mix-blend-mode: screen;"></path>
            </g>
        </g>
    </g>
</svg>