<svg width="45px" height="115px" viewBox="0 0 45 115" version="1.1" xmlns="http://www.w3.org/2000/svg" xmlns:xlink="http://www.w3.org/1999/xlink">
    <!-- Generator: Sketch 47.1 (45422) - http://www.bohemiancoding.com/sketch -->
    <desc>Created with Sketch.</desc>
    <defs></defs>
    <g id="Page-1" stroke="none" stroke-width="1" fill="none" fill-rule="evenodd" opacity="0.3">
        <g id="SCHMODEL---F-e-APP_Edit-My-Profile-2" transform="translate(-178.000000, -425.000000)" fill-rule="nonzero" fill="#58595B">
            <g id="7429ee68-b00a-4106-ac04-cea8cddb047b" transform="translate(11.000000, 92.000000)">
                <path d="M210.47,368.93 C208.88,365.57 202.06,356.14 202.06,356.14 C201.13,353.33 197.39,353.33 194.87,352.96 C193.689345,352.611856 192.794713,351.644272 192.54,350.44 L192.35,350.16 C194.22,349.6 193.66,346.42 194.69,345.11 C196.09,345.02 195.53,342.69 195.53,342.69 C195.53,342.69 195.34,341.1 195.25,338.11 C195.16,335.12 192.16,333.81 190.58,333.53 C188.557398,333.423777 186.555579,333.98218 184.88,335.12 C183.76,336.05 183.57,337.64 183.2,339.32 C182.83,341 184.32,341.57 184.41,341.85 C184.469292,342.787626 184.405415,343.728979 184.22,344.65 C184.04,345.77 185.72,346.05 185.72,346.05 C185.876298,346.944236 186.127726,347.819205 186.47,348.66 C186.755532,349.338297 186.852282,350.081197 186.75,350.81 C186.75,351.65 184.04,352.59 183.2,353.05 C182.36,353.51 181.89,353.61 179.37,353.89 C176.85,354.17 176.75,356.04 176.75,356.04 C176.75,356.04 174.98,358.84 172.83,362.39 C170.68,365.94 167.97,369.39 167.6,370.99 C167.23,372.59 169.09,374.91 172.17,378.27 C175.25,381.63 178.99,384.91 179.37,385.27 C179.75,385.63 180.02,389.85 180.02,393.58 L180.02,401.9 L181.51,402.18 C181.689062,403.499246 181.939429,404.807828 182.26,406.1 C182.64,407.31 182.54,410.86 182.54,412.92 C182.54,414.98 181.61,416.37 182.08,421.42 C182.55,426.47 184.5,431.79 184.6,433.37 C184.7,434.95 185.53,436.37 185.53,438.42 C185.380024,440.923852 185.568388,443.436494 186.09,445.89 C186.84,449.07 191.88,446.83 191.98,445.98 C191.98,447.1 196.98,447.76 197.21,445.8 C197.44,443.84 197.96,440.94 197.58,438.98 C197.366464,437.368604 197.336272,435.738197 197.49,434.12 C197.49,434.12 198.05,427.3 199.49,424.31 C200.93,421.32 199.58,413.95 199.3,412.92 C199.02,411.89 199.86,401.99 199.86,401.99 L201.73,401.06 C201.73,401.06 200.98,389.06 200.73,387.32 C200.48,385.58 201.48,384.99 201.73,384.15 C202.67,384.06 208.27,376.4 209.95,374.15 C211.63,371.9 212.06,372.3 210.47,368.93 Z M181.93,375.12 C181.93,375.79 181.07,378.74 181.07,379.12 C181.07,379.5 179.45,380.46 179.64,380.74 C179.83,381.02 178.11,379.89 176.11,377.41 C174.11,374.93 171.92,371.41 172.78,370.26 C173.64,369.11 177.64,363.68 178.88,363.49 C178.88,363.49 179.16,364.73 180.02,364.92 C180.88,365.11 181.16,365.59 181.16,367.59 C181.170656,368.550104 181.267715,369.507299 181.45,370.45 C181.55,371.69 180.78,373.02 181.55,373.4 C182.32,373.78 181.93,374.45 181.93,375.12 Z M194.39,432.67 C193.956384,433.815825 193.690311,435.018205 193.6,436.24 C193.6,437.9 192.8,437.24 192.72,439.01 C192.64,440.78 191.77,444.08 191.77,444.48 C191.77,444.88 191.3,446.15 191.22,444.64 C191.14,443.13 190.27,440.76 190.27,440.2 C190.240803,439.294917 190.022812,438.405921 189.63,437.59 C189,435.76 187.49,433.59 187.97,430.46 C188.45,427.33 188.21,424.59 188.13,418.73 C188.05,412.87 189.13,411.12 189.13,409.3 C189.13,407.48 189.37,401.85 189.37,401.85 L192.46,401.77 C192.46,401.77 192.06,408.03 193.01,410.33 C193.631568,411.887136 193.851648,413.575561 193.65,415.24 C193.65,416.51 193.49,422.53 193.57,424.43 C193.65,426.33 194.55,431.88 194.39,432.67 L194.39,432.67 Z M207,370.92 C206.5,371.78 202.4,379.7 200.78,380.27 C199.16,380.84 197.26,374.27 197.35,373.21 C197.44,372.15 198.49,371.21 198.49,369.11 C198.49,367.01 198.49,362.82 199.83,362.73 C199.85,362.73 207.52,370.07 207,370.92 Z" id="Shape" style="mix-blend-mode: screen;"></path>
            </g>
        </g>
    </g>
</svg>